<?xml version="1.0" standalone="no"?>
<!DOCTYPE svg PUBLIC "-//W3C//DTD SVG 20010904//EN"
 "http://www.w3.org/TR/2001/REC-SVG-20010904/DTD/svg10.dtd">
<svg version="1.0" xmlns="http://www.w3.org/2000/svg"
 width="1152.000000pt" height="648.000000pt" viewBox="0 0 1152.000000 648.000000"
 preserveAspectRatio="xMidYMid meet">

<g transform="translate(0.000000,648.000000) scale(0.100000,-0.100000)" stroke="none">
    <path fill="#00D4FF" d="M4974 5146 c-50 -13 -109 -33 -130 -44 -97 -49 -201 -148 -244 -231
    -11 -22 -11 -23 6 -16 11 5 57 15 104 23 64 11 89 20 100 36 41 60 109 119
    169 149 62 30 71 32 176 32 104 -1 114 -3 177 -34 133 -64 239 -195 290 -357
    18 -60 26 -74 43 -74 23 0 23 1 -6 287 l-13 132 -69 31 c-39 17 -90 38 -114
    46 -145 50 -343 57 -489 20z"/>

    <path fill="#00abff" d="M4785 4829 c-523 -55 -895 -497 -895 -1062 0 -325 105 -595 306 -788
    107 -102 201 -158 352 -213 291 -104 698 -56 964 115 l48 31 0 317 c0 388 7
    424 103 528 l41 45 -77 -41 c-74 -39 -261 -103 -339 -116 -39 -6 -45 -13 -29
    -30 5 -6 16 -34 25 -64 13 -44 16 -108 16 -337 l0 -282 -32 -28 c-18 -15 -60
    -40 -93 -55 -263 -125 -575 -41 -777 210 -166 207 -250 527 -219 842 20 200
    75 379 163 526 55 93 178 215 257 257 162 85 331 98 515 39 163 -52 308 -204
    366 -382 20 -62 26 -71 47 -71 23 0 24 3 18 43 -8 61 -35 333 -35 355 0 14
    -23 30 -88 60 -120 56 -237 88 -367 101 -120 12 -153 12 -270 0z"/>

    <path fill="#288171" d="M5870 4735 c0 -8 9 -15 20 -15 11 0 33 -12 50 -27 35 -32 59 -125 60
    -228 l0 -60 58 89 c67 100 146 186 211 228 l45 28 -222 0 c-191 0 -222 -2
    -222 -15z"/>
    
    <path fill="#00D4FF" d="M4695 4666 c-33 -12 -84 -37 -112 -56 -51 -33 -53 -36 -53 -81 0
    -124 84 -287 206 -398 55 -50 176 -141 188 -141 3 0 34 -17 68 -38 35 -21 101
    -59 148 -84 81 -44 87 -46 135 -38 86 15 161 44 273 104 l33 17 -33 23 c-40
    27 -233 137 -343 196 -281 149 -406 279 -438 455 l-12 63 -60 -22z"/>

    <path fill="#00abff" d="M6234 4628 c-35 -32 -95 -110 -157 -203 -132 -198 -208 -294 -303
    -385 -198 -189 -407 -277 -676 -287 -136 -5 -138 -6 -138 -28 0 -21 6 -24 66
    -30 77 -9 222 1 314 20 215 46 383 139 563 314 l87 85 0 -690 c0 -706 -4 -805
    -40 -924 -44 -150 -157 -250 -254 -226 -49 12 -57 31 -50 115 5 62 3 84 -10
    109 -50 97 -203 96 -249 -1 -19 -40 -22 -102 -6 -144 41 -108 202 -171 368
    -144 252 42 400 194 473 489 21 85 22 107 29 952 6 869 8 908 43 993 9 20 12
    37 7 37 -5 0 -35 -23 -67 -52z"/>

    <path fill="#288171" d="M5701 3714 c-81 -88 -97 -170 -64 -330 17 -80 17 -88 0 -168 -10 -51
    -17 -129 -17 -199 0 -125 2 -122 -75 -183 -11 -8 5 -3 35 13 84 43 198 163
    244 256 21 43 43 95 48 115 31 126 27 278 -11 388 -22 60 -85 164 -100 164 -5
    0 -32 -25 -60 -56z"/>

    <path fill="#00D4FF" d="M4495 3408 c3 -40 10 -145 15 -233 l9 -160 35 -31 c81 -71 226 -123
    366 -130 l95 -6 -84 43 c-183 93 -318 275 -379 510 -16 61 -23 75 -41 77 -21
    3 -22 1 -16 -70z"/>
</g>
</svg>